<?xml version="1.0" encoding="UTF-8" ?>
<!DOCTYPE svg PUBLIC "-//W3C//DTD SVG 1.1//EN" "http://www.w3.org/Graphics/SVG/1.1/DTD/svg11.dtd">
<svg width="256pt" height="256pt" viewBox="0 0 256 256" version="1.1" xmlns="http://www.w3.org/2000/svg">
<path fill="#004e66" d=" M 0.00 0.00 L 256.00 0.00 L 256.00 256.00 L 0.00 256.00 L 0.00 0.00 Z" />
<path fill="#cccccc" d=" M 145.37 14.51 C 150.92 13.18 156.71 12.93 162.39 13.39 C 169.25 14.09 175.37 18.42 178.74 24.37 C 186.20 36.81 186.02 51.87 190.74 65.28 C 191.77 68.60 194.32 71.01 196.88 73.19 C 193.18 74.84 189.54 72.40 186.97 69.90 C 179.44 62.76 175.84 52.77 171.45 43.63 C 170.63 41.79 169.31 40.24 167.93 38.80 C 161.47 45.41 170.64 56.27 164.04 62.92 C 160.00 59.82 158.51 54.78 155.81 50.66 C 153.22 53.47 154.08 57.42 154.61 60.81 C 156.20 69.56 159.03 78.06 162.86 86.07 C 177.42 117.17 192.76 147.91 206.74 179.27 C 210.16 187.36 213.69 195.45 215.89 203.97 C 217.64 209.98 214.51 216.15 210.34 220.37 C 203.48 227.24 194.39 231.25 185.38 234.45 C 166.94 240.66 147.38 242.83 127.99 242.96 C 108.53 242.87 88.89 240.73 70.36 234.53 C 61.36 231.36 52.29 227.39 45.40 220.59 C 41.41 216.62 38.15 210.91 39.42 205.10 C 41.13 197.42 44.18 190.12 47.11 182.84 C 60.64 150.22 76.18 118.49 91.84 86.85 C 96.67 77.35 101.31 67.76 106.46 58.43 C 112.11 47.77 118.19 37.22 126.00 27.96 C 131.16 21.96 137.52 16.47 145.37 14.51 Z" />
<path fill="#004e66" d=" M 138.29 130.47 C 140.25 126.62 142.14 122.74 144.05 118.86 C 145.98 122.72 147.84 126.62 149.80 130.47 C 154.08 131.13 158.36 131.80 162.64 132.40 C 159.55 135.44 156.43 138.44 153.36 141.50 C 154.15 145.74 154.86 149.99 155.57 154.24 C 151.72 152.23 147.87 150.24 144.05 148.18 C 140.25 150.24 136.40 152.22 132.57 154.23 C 133.29 149.95 134.00 145.67 134.72 141.39 C 131.62 138.42 128.55 135.42 125.48 132.42 C 129.75 131.79 134.02 131.13 138.29 130.47 Z" />
<path fill="#004e66" d=" M 81.45 166.60 C 87.23 157.01 98.11 150.96 109.27 150.74 C 103.14 154.65 97.08 159.73 94.85 166.93 C 92.32 175.27 94.65 184.14 97.93 191.93 C 100.81 198.95 106.63 204.95 114.01 207.11 C 120.19 209.14 126.79 208.50 133.08 207.46 C 126.85 213.22 118.61 216.98 110.04 216.92 C 98.71 217.22 87.49 211.06 81.60 201.40 C 75.03 191.01 74.89 177.02 81.45 166.60 Z" />
<path fill="#004e66" d=" M 160.29 186.47 C 162.25 182.62 164.15 178.73 166.05 174.85 C 167.98 178.71 169.84 182.61 171.80 186.47 C 176.06 187.12 180.33 187.78 184.59 188.42 C 181.54 191.47 178.41 194.45 175.36 197.51 C 176.16 201.72 176.86 205.95 177.54 210.19 C 173.69 208.23 169.86 206.22 166.05 204.18 C 162.25 206.24 158.40 208.22 154.57 210.23 C 155.29 205.93 156.02 201.64 156.70 197.34 C 153.58 194.41 150.54 191.40 147.47 188.42 C 151.74 187.79 156.01 187.13 160.29 186.47 Z" />
</svg>
