<?xml version="1.0" encoding="UTF-8"?>
<svg xmlns="http://www.w3.org/2000/svg" xmlns:xlink="http://www.w3.org/1999/xlink" viewBox="0 0 50 50" version="1.1" width="500px" height="500px">
<g id="surface1">
<path style=" " d="M 22.300781 34.398438 L 20.699219 30.101563 C 20.699219 30.101563 18.101563 33 14.101563 33 C 10.699219 33 8 29.800781 8 25 C 8 18.898438 11.300781 17 14.398438 17 C 18.800781 17 20.199219 19.800781 21.5 23.398438 L 23.101563 28.300781 C 24.699219 33.101563 27.699219 37 36.5 37 C 42.699219 37 47 35.101563 47 30.199219 C 47 26.199219 44.699219 24.101563 40.300781 23.101563 L 37.101563 22.398438 C 34.898438 21.898438 34.101563 20.898438 34.101563 19.5 C 34.101563 17.800781 35.800781 17 38 17 C 40.398438 17 41.800781 17.898438 42 20 L 47 19 C 46.601563 14.5 43.300781 13 38.101563 13 C 33.601563 13 29 14.601563 29 20 C 29 23.398438 30.800781 25.601563 35 26.601563 L 38.398438 27.398438 C 40.898438 27.898438 41.898438 29 41.898438 30.398438 C 41.898438 32.199219 39.898438 33 36.5 33 C 31.398438 33 29.300781 30.398438 28.101563 26.800781 L 26.398438 21.898438 C 24.300781 15.398438 20.898438 13 14.199219 13 C 6.800781 13 3 17.449219 3 25.25 C 3 32.75 6.800781 37 13.898438 37 C 19.601563 37 22.300781 34.398438 22.300781 34.398438 Z "/>
</g>
</svg>
