<?xml version="1.0" encoding="UTF-8" standalone="no"?>
<svg
   xmlns:dc="http://purl.org/dc/elements/1.1/"
   xmlns:cc="http://creativecommons.org/ns#"
   xmlns:rdf="http://www.w3.org/1999/02/22-rdf-syntax-ns#"
   xmlns:svg="http://www.w3.org/2000/svg"
   xmlns="http://www.w3.org/2000/svg"
   xmlns:sodipodi="http://sodipodi.sourceforge.net/DTD/sodipodi-0.dtd"
   xmlns:inkscape="http://www.inkscape.org/namespaces/inkscape"
   width="256pt"
   height="256pt"
   viewBox="0 0 256 256"
   version="1.1"
   id="svg12"
   sodipodi:docname="wizard-hat.svg"
   inkscape:version="0.92.5 (2060ec1f9f, 2020-04-08)">
  <metadata
     id="metadata18">
    <rdf:RDF>
      <cc:Work
         rdf:about="">
        <dc:format>image/svg+xml</dc:format>
        <dc:type
           rdf:resource="http://purl.org/dc/dcmitype/StillImage" />
      </cc:Work>
    </rdf:RDF>
  </metadata>
  <defs
     id="defs16" />
  <sodipodi:namedview
     pagecolor="#ffffff"
     bordercolor="#666666"
     borderopacity="1"
     objecttolerance="10"
     gridtolerance="10"
     guidetolerance="10"
     inkscape:pageopacity="0"
     inkscape:pageshadow="2"
     inkscape:window-width="1522"
     inkscape:window-height="918"
     id="namedview14"
     showgrid="false"
     inkscape:zoom="0.69140625"
     inkscape:cx="170.66667"
     inkscape:cy="170.66667"
     inkscape:window-x="0"
     inkscape:window-y="27"
     inkscape:window-maximized="0"
     inkscape:current-layer="svg12" />
  <path
     d=" M 0.00 0.00 L 256.00 0.00 L 256.00 256.00 L 0.00 256.00 L 0.00 0.00 Z"
     id="path2"
     fill="#004e66" />
  <path
     d=" M 145.37 14.51 C 150.92 13.18 156.71 12.93 162.39 13.39 C 169.25 14.09 175.37 18.42 178.74 24.37 C 186.20 36.81 186.02 51.87 190.74 65.28 C 191.77 68.60 194.32 71.01 196.88 73.19 C 193.18 74.84 189.54 72.40 186.97 69.90 C 179.44 62.76 175.84 52.77 171.45 43.63 C 170.63 41.79 169.31 40.24 167.93 38.80 C 161.47 45.41 170.64 56.27 164.04 62.92 C 160.00 59.82 158.51 54.78 155.81 50.66 C 153.22 53.47 154.08 57.42 154.61 60.81 C 156.20 69.56 159.03 78.06 162.86 86.07 C 177.42 117.17 192.76 147.91 206.74 179.27 C 210.16 187.36 213.69 195.45 215.89 203.97 C 217.64 209.98 214.51 216.15 210.34 220.37 C 203.48 227.24 194.39 231.25 185.38 234.45 C 166.94 240.66 147.38 242.83 127.99 242.96 C 108.53 242.87 88.89 240.73 70.36 234.53 C 61.36 231.36 52.29 227.39 45.40 220.59 C 41.41 216.62 38.15 210.91 39.42 205.10 C 41.13 197.42 44.18 190.12 47.11 182.84 C 60.64 150.22 76.18 118.49 91.84 86.85 C 96.67 77.35 101.31 67.76 106.46 58.43 C 112.11 47.77 118.19 37.22 126.00 27.96 C 131.16 21.96 137.52 16.47 145.37 14.51 Z"
     id="path4"
     fill="#cccccc" />
  <path
     d="m 122.90065,130.47 c -1.96,-3.85 -3.85,-7.73 -5.76,-11.61 -1.93,3.86 -3.79,7.76 -5.75,11.61 -4.28,0.66 -8.56,1.33 -12.84,1.93 3.09,3.04 6.21,6.04 9.28,9.1 -0.79,4.24 -1.5,8.49 -2.21,12.74 3.85,-2.01 7.7,-4 11.52,-6.06 3.8,2.06 7.65,4.04 11.48,6.05 -0.72,-4.28 -1.43,-8.56 -2.15,-12.84 3.1,-2.97 6.17,-5.97 9.24,-8.97 -4.27,-0.63 -8.54,-1.29 -12.81,-1.95 z"
     id="path6"
     inkscape:connector-curvature="0"
     style="fill:#004e66" />
  <path
     d="m 179.74065,166.6 c -5.78,-9.59 -16.66,-15.64 -27.82,-15.86 6.13,3.91 12.19,8.99 14.42,16.19 2.53,8.34 0.2,17.21 -3.08,25 -2.88,7.02 -8.7,13.02 -16.08,15.18 -6.18,2.03 -12.78,1.39 -19.07,0.35 6.23,5.76 14.47,9.52 23.04,9.46 11.33,0.3 22.55,-5.86 28.44,-15.52 6.57,-10.39 6.71,-24.38 0.15,-34.8 z"
     id="path8"
     inkscape:connector-curvature="0"
     style="fill:#004e66" />
  <path
     d="m 100.90065,186.47 c -1.96,-3.85 -3.86,-7.74 -5.76,-11.62 -1.93,3.86 -3.79,7.76 -5.75,11.62 -4.26,0.65 -8.53,1.31 -12.79,1.95 3.05,3.05 6.18,6.03 9.23,9.09 -0.8,4.21 -1.5,8.44 -2.18,12.68 3.85,-1.96 7.68,-3.97 11.49,-6.01 3.8,2.06 7.65,4.04 11.48,6.05 -0.72,-4.3 -1.45,-8.59 -2.13,-12.89 3.12,-2.93 6.16,-5.94 9.23,-8.92 -4.27,-0.63 -8.54,-1.29 -12.82,-1.95 z"
     id="path10"
     inkscape:connector-curvature="0"
     style="fill:#004e66" />
</svg>
