<?xml version="1.0" encoding="UTF-8" standalone="no"?>
<svg
   xmlns:dc="http://purl.org/dc/elements/1.1/"
   xmlns:cc="http://creativecommons.org/ns#"
   xmlns:rdf="http://www.w3.org/1999/02/22-rdf-syntax-ns#"
   xmlns:svg="http://www.w3.org/2000/svg"
   xmlns="http://www.w3.org/2000/svg"
   xmlns:sodipodi="http://sodipodi.sourceforge.net/DTD/sodipodi-0.dtd"
   xmlns:inkscape="http://www.inkscape.org/namespaces/inkscape"
   id="svg3795"
   version="1.1"
   viewBox="0 0 256 256"
   height="256pt"
   width="256pt"
   sodipodi:docname="wizard-hat-inverted.svg"
   inkscape:version="0.92.5 (2060ec1f9f, 2020-04-08)">
  <sodipodi:namedview
     pagecolor="#ffffff"
     bordercolor="#666666"
     borderopacity="1"
     objecttolerance="10"
     gridtolerance="10"
     guidetolerance="10"
     inkscape:pageopacity="0"
     inkscape:pageshadow="2"
     inkscape:window-width="2560"
     inkscape:window-height="1373"
     id="namedview6"
     showgrid="false"
     inkscape:zoom="1.9555922"
     inkscape:cx="148.0325"
     inkscape:cy="197.1689"
     inkscape:window-x="0"
     inkscape:window-y="27"
     inkscape:window-maximized="1"
     inkscape:current-layer="svg3795" />
  <metadata
     id="metadata3801">
    <rdf:RDF>
      <cc:Work
         rdf:about="">
        <dc:format>image/svg+xml</dc:format>
        <dc:type
           rdf:resource="http://purl.org/dc/dcmitype/StillImage" />
        <dc:title />
      </cc:Work>
    </rdf:RDF>
  </metadata>
  <defs
     id="defs3799" />
  <path
     style="fill:#004e66;fill-opacity:1;stroke-width:1"
     d="m 158.35149,13.114684 c -4.28484,-0.0614 -8.58311,0.32818 -12.74561,1.32568 -7.85,1.96 -14.20962,7.4502 -19.36962,13.4502 -7.81,9.26 -13.88955,19.81021 -19.53955,30.47021 -5.15,9.33 -9.790609,18.9209 -14.620609,28.4209 -15.660004,31.639996 -31.200474,63.369736 -44.730474,95.989736 -2.93,7.28001 -5.97896,14.57977 -7.68896,22.25977 -1.27,5.80999 1.98949,11.51926 5.97949,15.48925 6.89,6.80001 15.95947,10.77092 24.95947,13.94092 18.530004,6.2 38.171353,8.34018 57.631353,8.43018 19.39,-0.13 38.94965,-2.30074 57.38965,-8.51074 9.00999,-3.20001 18.09947,-7.21008 24.95946,-14.08008 4.17001,-4.22 7.3003,-10.38893 5.5503,-16.39893 -2.2,-8.51999 -5.72941,-16.61019 -9.14941,-24.70019 -13.98,-31.36 -29.32086,-62.10069 -43.88086,-93.200676 -3.83,-8.01 -6.66,-16.50977 -8.25,-25.25977 -0.53,-3.39 -1.39029,-7.3399 1.1997,-10.1499 2.7,4.12 4.19097,9.15928 8.23096,12.25928 6.6,-6.65 -2.57083,-17.51012 3.88916,-24.12012 1.38,1.44 2.70003,2.99106 3.52002,4.83106 4.39,9.14 7.99002,19.12904 15.52002,26.26904 2.57,2.5 6.20967,4.94004 9.90967,3.29004 -2.56,-2.18 -5.10916,-4.59016 -6.13916,-7.91016 -4.72,-13.41 -4.54,-28.46869 -12,-40.90869 -3.37,-5.95 -9.49058,-10.28047 -16.35059,-10.98047 -1.41999,-0.115 -2.84613,-0.18607 -4.27441,-0.20654 z"
     id="path822" />
  <path
     style="fill:#ffffff;fill-opacity:1;stroke-width:1"
     d="m 117.37659,118.79143 c -1.93,3.86001 -3.78951,7.76035 -5.74951,11.61036 -4.28,0.66 -8.56082,1.32919 -12.840828,1.92919 3.089998,3.04001 6.209788,6.03962 9.279788,9.09962 -0.79,4.23999 -1.49898,8.4912 -2.20898,12.74121 3.85,-2.01 7.69953,-4.00006 11.51953,-6.06006 3.8,2.06 7.64998,4.0398 11.47998,6.0498 -0.72,-4.28 -1.43039,-8.56082 -2.15039,-12.84082 3.1,-2.97 6.17024,-5.96924 9.24023,-8.96924 -4.26999,-0.63 -8.54006,-1.2897 -12.81006,-1.9497 -1.95999,-3.85001 -3.84976,-7.73036 -5.75976,-11.61036 z"
     id="path820"
     inkscape:connector-curvature="0" />
  <path
     style="fill:#ffffff;fill-opacity:1;stroke-width:1"
     d="m 152.15637,150.67083 c 6.13,3.91 12.18993,8.99092 14.41992,16.19092 2.53001,8.34 0.19944,17.20902 -3.08056,24.99902 -2.88,7.02 -8.69959,13.02017 -16.07959,15.18017 -6.18,2.03 -12.77934,1.3901 -19.06933,0.3501 6.22999,5.76 14.46906,9.51996 23.03906,9.45996 11.32999,0.3 22.54994,-5.86002 28.43994,-15.52002 6.57,-10.39 6.71088,-24.38029 0.15087,-34.80029 -5.78,-9.59 -16.66031,-15.63986 -27.82031,-15.85986 z"
     id="path818"
     inkscape:connector-curvature="0" />
  <path
     style="fill:#ffffff;fill-opacity:1;stroke-width:1"
     d="m 95.376102,174.78069 c -1.93,3.86 -3.78951,7.76061 -5.74951,11.6206 -4.26,0.65001 -8.52955,1.30971 -12.78955,1.94971 3.05,3.05 6.17998,6.02936 9.22998,9.08935 -0.8,4.21001 -1.50116,8.44116 -2.18115,12.68116 3.85,-1.96 7.68023,-3.97026 11.49023,-6.01026 3.8,2.06 7.649978,4.03981 11.479978,6.04981 -0.72,-4.3 -1.44988,-8.59063 -2.12988,-12.89063 3.12,-2.93 6.15998,-5.93942 9.22998,-8.91943 -4.27,-0.63 -8.54032,-1.28971 -12.82031,-1.94971 -1.960008,-3.84999 -3.859768,-7.7406 -5.759768,-11.6206 z"
     id="path3787"
     inkscape:connector-curvature="0" />
</svg>
